<?xml version="1.0" encoding="utf-8"?>
<!-- Generator: Adobe Illustrator 24.1.2, SVG Export Plug-In . SVG Version: 6.00 Build 0)  -->
<svg version="1.1" id="Camada_1" xmlns="http://www.w3.org/2000/svg" xmlns:xlink="http://www.w3.org/1999/xlink" x="0px" y="0px"
	 viewBox="0 0 271.9 39.1" style="enable-background:new 0 0 271.9 39.1;" xml:space="preserve">
<style type="text/css">
	.st0{fill:#FCB251;}
	.st1{fill:#FFFFFF;}
	.st2{fill:none;}
	.st3{fill:#409C9F;}
	.st4{fill-rule:evenodd;clip-rule:evenodd;fill:#029696;}
	.st5{fill-rule:evenodd;clip-rule:evenodd;fill:#05968F;}
	.st6{fill-rule:evenodd;clip-rule:evenodd;fill:#409C9F;}
</style>
<path class="st0" d="M75.4,2.9l-1.6-1.6l-7.7,9.6c-0.5,0.7-0.9,1.4-1.4,2.1c-0.6,0.8-1,1.2-1.4,1.1c0.8-2.1,1.6-4.1,2.4-6.2
	c0.9-2.5,1.6-4.5,2-6.2l-3.4,0.3l1.2,0.6c-0.4,0.3-0.9,0.4-1.6,0.4c-0.7-0.9-1.4-1.4-2.2-1.4c-0.4,0-1.1,0.2-2.1,0.7
	c-0.9,0.4-1.7,0.7-2.2,0.7c-0.5,0-1-0.2-1.5-0.5c-0.3,0.8-0.6,1.5-0.9,2.3c-0.4,0.9-0.5,1.7-0.5,2.3C54,7.7,53.4,8.7,53,10
	c-0.1,0.3-0.4,1.4-1,3.3l0.1-0.3c0.2,0,0.4,0.1,0.4,0.4c0,0.3,0.1,0.4,0.3,0.5h-1.3l-3.7,9.8l0.8,0.4l-1.4,1.3
	c-0.1,0.1-0.2,0.3-0.2,0.4c0,0.1,0,0.2,0,0.3c0,0.1,0,0.2,0,0.3c0,0.2-0.1,0.4-0.4,0.6c0,0.6-0.4,1.5-0.9,2.7
	c-0.6,1.2-0.9,2.1-0.9,2.7c0,0.6,0.2,1.2,0.6,1.6c-0.3,0.5-0.8,0.8-1.5,0.8c-0.1,0-0.3,0-0.4-0.1v0.4c-0.1,0.4,0.1,0.8,0.4,1.2
	c0.2-0.5,0.5-0.8,0.9-0.8c0.7-0.1,1.1-0.2,1.2-0.2c0.5,0.3,1,0.6,1.5,0.9c0.6,0.4,0.8,0.9,0.9,1.4l0.6-0.6c0,0,0.1,0.1,0.3,0.3
	c0.1,0.1,0.1,0.2,0.1,0.3l1.2-1.3c0.1-0.9,0.6-1.4,1.5-1.6c0.9-0.1,1.4-0.6,1.5-1.3l-1-0.1c-0.1-0.1-0.1-0.2-0.1-0.2
	c0,0,0.1-0.1,0.2-0.2c0.1-0.1,0.2-0.1,0.2-0.2c0-0.1-0.1-0.2-0.2-0.3c0.1,0,0.2-0.1,0.3-0.3c0.1-0.1,0.2-0.2,0.3-0.2
	c0.5,0.2,1,0.3,1.4,0.5c0.6,0.2,0.9,0.5,0.9,0.8c0,0.2-0.1,0.4-0.4,0.7L55,33.9c-0.5,0.1-1.1,0.4-1.5,0.8c-0.5,0.4-0.8,0.8-0.9,1.2
	c0.5,0,0.8,0.2,0.9,0.8c0.1,0.6,0.4,0.8,0.9,0.8c0.1-0.1,0.2-0.2,0.2-0.3c0-0.1-0.1-0.2-0.3-0.4c-0.2-0.2-0.3-0.3-0.3-0.5l1-0.3
	c0-0.2-0.1-0.4-0.4-0.5c-0.3-0.1-0.4-0.3-0.4-0.5c0.1-0.2,0.3-0.3,0.5-0.3c0.1,0,0.2,0,0.3,0c0.1,0,0.2,0,0.2,0
	c0.2,0,0.4-0.1,0.5-0.3c2.2-6,3.7-9.8,4.4-11.3c0,0.6,0.1,1.3,0.1,2c0,1.2-0.1,3.1-0.4,5.7c-0.2,2.5-0.3,4.3-0.3,5.5
	c0.2-0.4,0.6-0.7,1.2-0.7c0.1,0,0.4,0,0.8,0.1c0.3,0,0.6,0,0.8,0c0.5,0.2,0.7,0.7,0.7,1.6h8.6v-1c-0.1,0-0.3,0.1-0.4,0.1
	c-0.2,0-0.3-0.1-0.3-0.3c0-0.3-0.1-0.5-0.1-0.6c-0.1,0-0.3,0.2-0.8,0.7l-0.4-0.7c0.3-0.8,0.8-1.1,1.6-1.1c0.2,0,0.3,0,0.4,0.1
	c0.2-7,0.2-12.7,0.2-17c5.2-6.6,9.1-11.5,11.6-14.8H75.4z"/>
<path class="st0" d="M95,11c0.3,0.1,0.5,0.1,0.5,0.1c0.1-0.5,0.3-1.3,0.8-2.4c0.4-1,0.6-1.8,0.6-2.3l-0.1,0.2c0,0-0.4,0-0.9,0
	c-0.4,0-0.6-0.1-0.7-0.3c0.1-0.1,0.1-0.2,0.1-0.4c0-0.2,0.1-0.3,0.2-0.4l-6.3-0.3l-0.4,0.3l0.2,0.1l-0.3,0.4c-0.2,0-0.3-0.1-0.3-0.3
	c0,0,0-0.1,0.1-0.2c0-0.1,0.1-0.1,0.1-0.2c0-0.1-0.1-0.2-0.2-0.2c-0.5,0.6-0.9,1.4-1.2,2.5c-0.2,0.8-0.5,1.6-0.7,2.4
	c0.1,0,0.2,0,0.3,0c0.1,0,0.2,0.1,0.2,0.2c0,0.1,0,0.2-0.1,0.3c0,0.2-0.1,0.3-0.1,0.4c0,0,0,0.1,0,0.1L86,10.7
	c-0.3,0.8-0.9,2.3-1.6,4.6c-0.6,1.8-1.2,3.3-1.7,4.5l0.6,0.1c-1.1,1.3-2,3-2.8,5.2c-1.1,3-1.8,4.9-2.1,5.5c0,0.1,0.1,0.3,0.1,0.4
	c0,0.3-0.2,0.6-0.5,1.1c-0.3,0.5-0.5,0.8-0.5,1.1c-0.1,0.6,0.1,0.9,0.6,0.9c0.7,0.1,1.2,0.2,1.4,0.3c0-0.3,0-0.4,0.1-0.5
	c0.3,0,0.4,0,0.5,0.1c0,0.3,0.1,0.5,0.5,0.5c0.7,0,1.1,0,1,0c0.3,0,0.5-0.1,0.5-0.4c0,0,0-0.1,0-0.2L80.8,34v-0.1
	c0.2-0.5,0.6-0.8,1.2-0.7c0.4,0.1,0.7,0.5,0.7,1.3c0.5,0,0.8-0.2,0.9-0.5c0.2-0.5,0.4-0.8,0.5-0.9c0.8,0.2,1.4,0.7,1.9,1.6
	c0.3-0.1,0.4-0.4,0.5-0.8c0-0.4,0-0.6,0.1-0.6c0.1-0.2,0.3-0.2,0.7-0.2c0.1-0.3,0.5-1.4,1.3-3.2c0.6-1.4,0.8-2.5,0.8-3.4
	c0.5-0.4,1-1.1,1.3-2.1c0.2-0.8,0.5-1.6,0.8-2.3l-0.5-0.2c0.7-0.7,1.3-1.8,1.9-3.4c0.7-2,1.2-3.2,1.3-3.6c-0.1-0.2-0.1-0.3-0.1-0.5
	c0-0.2,0.2-0.5,0.5-0.9c0.4-0.4,0.5-0.7,0.5-1c0-0.1,0-0.3-0.1-0.4c0-0.3-0.2-0.4-0.3-0.4c-0.2,0-0.3,0-0.5-0.1
	c-0.2,0-0.3-0.1-0.5-0.3c0.1-0.2,0.4-0.3,0.7-0.3C94.5,10.9,94.7,11,95,11z"/>
<path class="st0" d="M104.8,34.1l8.4-22v-1c0.3-1.2,1.3-1.8,2.9-1.8c0.3,0,0.8,0,1.4,0.1c0.6,0.1,1.1,0.1,1.4,0.1
	c0.6,0,1.1-0.1,1.5-0.3l-1.1-0.3l1.2-0.6c0.4-0.5,0.6-1.1,0.6-1.7c0-0.4-0.1-0.8-0.4-0.9c-0.1,0.3-0.5,0.4-0.9,0.2
	c-0.5-0.2-0.8-0.1-1,0.1c-1.3,0-3.2,0-5.6,0.1c-2.5,0.1-4.3,0.1-5.5,0.1c-3.1,0-5.8-0.2-8.1-0.6l-0.5,1.9c1.6,1,4.2,1.5,8,1.4
	c-0.8,0.4-1.8,0.5-3.1,0.5c0,0.2,0.1,0.3,0.1,0.5c0,0.4-0.2,0.8-0.6,1.4c-0.4,0.6-0.6,1.1-0.6,1.4c0,0.3,0.1,0.6,0.3,0.9
	c-1,0.4-1.5,1.4-1.5,3.1c-0.8,1.2-1.5,2.8-2.2,4.8l-1.7,4.9l1.3-0.8c0,0.6-0.6,1.2-1.7,2c-1.4,2.6-2.2,4.9-2.4,6.6h0.9l-0.1-0.1
	c-0.2-0.1-0.3-0.3-0.3-0.6c0-0.3,0.2-0.6,0.5-1c0.1-0.1,0.3-0.2,0.5-0.2c0.2,0,0.4,0.1,0.7,0.3c0.2,0.2,0.4,0.4,0.4,0.5
	c0,0.1-0.2,0.4-0.7,0.9H104.8z"/>
<path class="st0" d="M141,10.6c0.1-0.5,0.4-1.3,1-2.5c0.5-1,0.7-1.9,0.7-2.5c0-0.2,0-0.5-0.1-0.7h-0.9l0.3,0.5
	c-0.3,0.2-0.9,0.2-1.7,0.1c-0.8-0.1-1.3-0.1-1.6,0.2l1,0.5c-0.3,0.5-0.9,0.6-1.7,0.2c-0.4-0.7-1-1.1-1.6-1.1c-0.2,0-1,0.3-2.4,0.8
	c-1,0.4-1.8,0.3-2.4-0.3c-0.2,0.3-0.5,0.5-0.8,0.5c-0.2,0-0.6-0.1-1.2-0.4c-0.6-0.3-1-0.4-1.3-0.4l0.1,0.1l-0.7,0.7l-0.8-0.8
	c0.2-0.1,0.3-0.2,0.3-0.2l-0.5-0.1L117,30.8l-0.3,2c-0.6,0.3-0.8,0.8-0.8,1.4c0,0.2,0,0.4,0.1,0.6c0,0,0.1,0,0.1,0
	c0.1,0,0.3-0.1,0.5-0.4c0.3-0.3,0.5-0.4,0.7-0.4c0.1,0,0.2,0,0.3,0.1c0,0.3,0,0.5-0.1,0.5c0.1,0,0.2-0.1,0.3-0.1
	c0.1,0,0.3,0.1,0.6,0.2c0.2,0.1,0.4,0.2,0.5,0.2c0.1,0,0.3-0.1,0.4-0.3c-0.1-0.1-0.2-0.3-0.2-0.5c0-0.2,0.1-0.4,0.3-0.5
	c0.3,0.2,0.5,0.2,0.7,0.2c0.1,0,0.1,0.1,0.1,0.1c0,0,0,0.1-0.1,0.2c-0.1,0.1-0.1,0.2-0.1,0.2c0,0.1,0.1,0.1,0.2,0.2
	c0.5,0,0.8-0.4,1-1c0.2-0.6,0.5-1,1-1.2c0.2,0.2,0.3,0.4,0.3,0.5c0,0.2-0.2,0.5-0.5,0.9c-0.4,0.4-0.5,0.7-0.6,0.9
	c0.2-0.2,0.4-0.3,0.7-0.3c0.1,0,0.3,0,0.5,0.1c0.2,0,0.4,0.1,0.5,0.1c0.3,0,0.5-0.1,0.7-0.3c0.2,0.4,0.5,0.6,0.8,0.6
	s0.7-0.3,1.2-0.8c0.6-0.6,1-0.8,1.4-0.8c0.2,0,0.4,0.1,0.6,0.2c0,0-0.1,0.1-0.1,0.1c0.1-0.1,0.2-0.2,0.4-0.2
	c0.7-0.4,1.1-0.7,1.2-0.9l-0.2-0.1c0,0-0.2,0.2-0.6,0.5c-0.2-0.1-0.3-0.3-0.3-0.5c0-0.4,0.3-0.7,0.9-1l0.8,0.6
	c0.1,0.1,0.1,0.2,0.1,0.3c0,0.1-0.1,0.2-0.2,0.4c-0.1,0.2-0.2,0.3-0.2,0.4c0,0.1,0,0.1,0.1,0.2c0.2,0.1,0.4,0.3,0.4,0.5
	c0,0.1,0,0.2-0.1,0.3c0,0.1-0.1,0.2-0.1,0.2c0,0.1,0,0.1,0.1,0.1l1.3-1.4c-0.2,0,0.1,0,0.8-0.1c0.3,0,0.5,0.1,0.5,0.3
	c0,0.1-0.2,0.2-0.4,0.2h-0.4c-0.3,0-0.5,0.1-0.7,0.3c-0.2,0.2-0.3,0.4-0.3,0.7h0.7c0.3,0,0.5,0.1,0.6,0.2c0.3,0,0.5-0.3,0.7-0.7
	c0.1-0.2,0.2-0.5,0.3-0.7c0-0.1,0-0.3,0-0.4c0-0.5,0.3-1.1,0.8-1.9c0.5-0.8,0.8-1.5,0.7-2l-6.8-0.2l2.5-6.4h5.6
	c1.3-2.1,2.1-4,2.3-5.7c-0.4,0-1,0-1.9,0c-0.9,0-1.5,0-2,0c-0.7,0-1.3-0.1-1.8-0.3c1-2.7,1.7-4.5,2.1-5.5L141,10.6z"/>
<path class="st0" d="M149.6,34.8c0.5,0,0.8-0.2,0.9-0.7c0.1,0.4,0.3,0.6,0.6,0.6c0.2,0,0.6-0.2,1.3-0.6c0.8-2,1.5-3.9,2.2-5.9
	c0.9-2.3,1.7-4.2,2.4-5.6l7-0.5c2.2-0.1,3.9-1.3,5.3-3.6c0.5-0.8,1.4-2.9,2.7-6.1c0-0.4,0.1-1,0.5-1.8c0.3-0.8,0.5-1.4,0.5-1.8
	c0-0.7-0.4-1.1-1.2-1.3c0-0.1,0.1-0.2,0.2-0.4c0.1-0.2,0.2-0.4,0.2-0.5c0-0.1,0-0.3-0.1-0.4c-0.1,0-0.1,0-0.2,0
	c-0.1,0-0.2,0.1-0.2,0.3c0,0.2-0.1,0.3-0.3,0.3c-0.1-0.1-0.3-0.2-0.7-0.2c-0.3,0-0.5-0.1-0.5-0.3c-0.1-0.1-0.3-0.2-0.5-0.2
	c-0.1,0-0.3,0-0.5,0.1c-0.2,0-0.4,0.1-0.5,0.1c-0.5,0-0.7-0.3-0.7-1c-1.8-0.1-3.6-0.1-5.6-0.1c-1.9,0-3.8,0-5.6,0.1L156,6.6
	c-0.1,0-0.4-0.3-0.6-0.8c-0.3-0.5-0.5-0.8-0.8-0.8c-0.2,0-0.3,0-0.5,0.1V5.1h-0.3c-1.9,5-3.9,9.9-5.8,14.9c-2.2,5.8-4,10.8-5.4,14.9
	c0.2-0.1,0.4-0.1,0.6-0.1c0.2,0,0.5,0,0.9,0.1c0.4,0,0.7,0.1,0.9,0.1c0.8,0,1.4-0.2,1.7-0.7c0.2-0.1,0.4-0.2,0.5-0.2
	c0.6,0,0.9,0.3,1.1,0.8C148.2,34.8,148.6,34.8,149.6,34.8z M161.8,9.7l2,0.3c-0.1,3.3-1.1,5.7-3.1,7H159L161.8,9.7z"/>
<path class="st0" d="M191.5,30.5c1.4-1.7,2.7-4.3,3.9-8c1.5-4.4,2.6-7.1,3.2-8.3c0.9-2.7,1.4-4.6,1.4-5.7c0-0.7-0.1-1.4-0.3-2
	c-1-1.5-2-2.1-2.9-1.9c0.1,0.1,0.2,0.2,0.3,0.4c0.1,0.2,0.1,0.3,0.2,0.5c-0.1,0.2-0.4,0.4-1,0.4c-0.2-0.8-0.8-1.2-1.6-1.2
	c-0.3,0-0.8,0.1-1.5,0.3c-0.6,0.1-1,0.2-1.2,0.1v0.7c-0.2,0.1-0.5,0.2-0.8,0.2c-0.6,0-1-0.2-1.2-0.7c-0.3-0.4-0.8-0.6-1.3-0.6
	c-0.5,0-0.9,0.1-1.1,0.4l0.2,0.3c0,0.1-0.1,0.1-0.2,0.1c-0.1,0-0.2,0-0.3-0.1c-0.1-0.1-0.2-0.1-0.2-0.2c-0.1,0.3-0.4,0.5-0.6,0.5
	c-0.1,0-0.4-0.1-0.6-0.2c-0.3-0.1-0.4-0.2-0.5-0.2c-0.1,0-0.2,0.1-0.3,0.1c-0.4-0.1-0.9-0.1-1.3-0.1c-2.1,0-4.1,1.3-5.9,3.8
	c-1.7,3.4-2.9,6.3-3.3,8.6c-0.8,1.3-1.9,4.2-3.5,8.6c0,0.4-0.1,1-0.4,1.8c-0.3,0.8-0.4,1.5-0.4,1.9c0,0.2,0,0.4,0.1,0.7
	c0.1,0.4,0.3,0.8,0.5,1.2c0.2,0.5,0.5,0.7,0.8,0.7c0.1,0,0.3,0,0.4-0.1c0,0.7,0.2,1,0.7,1.1c0.5,0.1,1,0.2,1.4,0.3
	c0.5,0.1,0.7,0.4,0.8,0.8l0.7-0.7l1.4,1c0.1-0.6,0.4-0.8,0.9-0.7c0,0.6,0.5,0.9,1.2,0.9c0.3,0,0.7,0,1.2-0.1
	c0.5-0.1,0.8-0.1,0.9-0.1c0.1,0.1,0.3,0.1,0.4,0.1c0.2,0,0.5-0.1,0.9-0.4c0.4-0.2,0.7-0.4,0.9-0.4c0.1,0,0.3,0,0.4,0.1v0.2
	C186.9,34.4,189.5,33,191.5,30.5z M182.4,29.3c-0.2,0.3-0.9,0.5-2,0.5l-0.5-0.5l4-10.6c-0.1-0.3-0.4-0.4-0.8-0.3
	c-0.4,0.1-0.7,0.1-0.7-0.1l0.7-0.5l-0.3,0.3c0.1,0.1,0.2,0.2,0.4,0.2c0.1,0,0.3-0.1,0.8-0.3c0.6-0.8,1.3-2.4,2.1-4.9
	c0.7-2.1,1.6-3.6,2.7-4.5c0.3,0,0.6,0,0.9,0c0.4,0,0.6,0.2,0.6,0.5c-0.4,1.1-1.6,4.6-3.5,10.4C185.4,23.5,184,26.8,182.4,29.3z"/>
<path class="st0" d="M213.5,14.8c-0.1-0.2-0.1-0.3-0.1-0.5c0-0.2,0.2-0.5,0.5-0.9c0.4-0.4,0.5-0.7,0.5-1c0-0.1,0-0.3-0.1-0.4
	c0-0.3-0.2-0.4-0.3-0.4c-0.2,0-0.3,0-0.5-0.1c-0.2,0-0.3-0.1-0.5-0.3c0.1-0.2,0.4-0.3,0.7-0.3c0.2,0,0.4,0,0.7,0.1
	c0.3,0.1,0.5,0.1,0.5,0.1c0.1-0.5,0.3-1.3,0.8-2.4c0.4-1,0.6-1.8,0.6-2.3l-0.1,0.2c0,0-0.4,0-0.9,0c-0.4,0-0.6-0.1-0.7-0.3
	c0.1-0.1,0.1-0.2,0.1-0.4c0-0.2,0.1-0.3,0.2-0.4l-6.3-0.3l-0.4,0.3l0.2,0.1l-0.3,0.4c-0.2,0-0.3-0.1-0.3-0.3c0,0,0-0.1,0.1-0.2
	c0-0.1,0.1-0.1,0.1-0.2c0-0.1-0.1-0.2-0.2-0.2c-0.5,0.6-0.9,1.4-1.2,2.5c-0.2,0.8-0.5,1.6-0.7,2.4c0.1,0,0.2,0,0.3,0
	c0.1,0,0.2,0.1,0.2,0.2c0,0.1,0,0.2-0.1,0.3c0,0.2-0.1,0.3-0.1,0.4c0,0,0,0.1,0,0.1l-0.8-0.2c-0.3,0.8-0.9,2.3-1.6,4.6
	c-0.6,1.8-1.2,3.3-1.7,4.5l0.6,0.1c-1.1,1.3-2,3-2.8,5.2c-1.1,3-1.8,4.9-2.1,5.5c0,0.1,0.1,0.3,0.1,0.4c0,0.3-0.2,0.6-0.5,1.1
	c-0.3,0.5-0.5,0.8-0.5,1.1c-0.1,0.6,0.1,0.9,0.6,0.9c0.7,0.1,1.2,0.2,1.4,0.3c0-0.3,0-0.4,0.1-0.5c0.3,0,0.4,0,0.5,0.1
	c0,0.3,0.1,0.5,0.5,0.5c0.7,0,1.1,0,1,0c0.3,0,0.5-0.1,0.5-0.4c0,0,0-0.1,0-0.2l-1.2-0.2v-0.1c0.2-0.5,0.6-0.8,1.2-0.7
	c0.4,0.1,0.7,0.5,0.7,1.3c0.5,0,0.8-0.2,0.9-0.5c0.2-0.5,0.4-0.8,0.5-0.9c0.8,0.2,1.4,0.7,1.9,1.6c0.3-0.1,0.4-0.4,0.5-0.8
	c0-0.4,0-0.6,0.1-0.6c0.1-0.2,0.3-0.2,0.7-0.2c0.1-0.3,0.5-1.4,1.3-3.2c0.6-1.4,0.8-2.5,0.8-3.4c0.5-0.4,1-1.1,1.3-2.1
	c0.2-0.8,0.5-1.6,0.8-2.3l-0.5-0.2c0.7-0.7,1.3-1.8,1.9-3.4C212.8,16.4,213.3,15.2,213.5,14.8z"/>
<path class="st0" d="M242.8,14c1.3-3.5,2.3-6.2,2.8-8.1L245.4,6c-0.1,0-0.2,0-0.3-0.1l0.1-0.2c-0.2,0-0.5-0.1-1-0.3
	c-0.6,0.2-1.3,0.3-2.1,0.4c-0.5,0-1.3,0-2.2,0c-1.1,0-1.9,0-2.2,0c-0.7,1.2-1.5,3.1-2.4,5.5c-1,2.8-1.7,4.7-2.2,5.6
	c-0.2-1.1-0.4-2.8-0.4-4.9c-0.1-2.2-0.2-3.8-0.3-4.8h-2.2v0.9c-0.1,0-0.5,0.2-1.1,0.4c-0.5,0.2-0.8,0.3-1.1,0.3
	c-0.4,0-0.7-0.1-1-0.3c0,0,0.1-0.1,0.3-0.2c0.1-0.1,0.2-0.1,0.3-0.1c0.1,0,0.2,0.1,0.3,0.2v0.1l1.9-1l-0.4-0.3
	c0.2-0.1,0.3-0.3,0.5-0.6c0.1-0.3,0.3-0.5,0.5-0.6h-3.1c0,0.3,0,0.5-0.1,0.5c-0.1,0-0.2-0.2-0.2-0.5h-0.5l0.5,0.5l-3.9,0.4
	c-0.5,1.4-0.8,2.1-0.9,2.2h3.1c-0.3,0.3-0.8,0.5-1.5,0.5c-0.9,0.1-1.5,0.1-1.7,0.2l-3.1,7.8c-0.1,0.1-0.2,0.3-0.2,0.6
	c0,0.1,0,0.3,0.1,0.5c0,0.2,0.1,0.4,0.1,0.4c0,0.3-0.2,0.4-0.6,0.4c-0.6,1.5-1.2,3-1.8,4.5c-0.7,1.8-1.1,3.3-1.3,4.5
	c-1.4,2.1-2.3,4.2-2.5,6.4c0,0,0.3,0,0.6,0c0.2,0,0.4,0,0.5-0.1c-0.1,0-0.1-0.2-0.1-0.5c0.4-1,0.9-1.5,1.5-1.4
	c0.4,0.1,0.7,0.5,0.7,1.1c0,0.2-0.1,0.3-0.3,0.4c-0.3,0.1-0.5,0.2-0.5,0.2l-0.1-0.8c-0.1,0-0.1,0-0.2,0c-0.1,0-0.2,0.1-0.3,0.3
	c-0.1,0.3-0.2,0.4-0.2,0.4l1.1,0.5c0.3-0.3,0.7-0.5,1-0.5c0.1,0,0.5,0.1,1.1,0.4c0.5,0.2,0.9,0.2,1.3,0c-0.9,0-1.6-0.2-1.9-0.5
	c-0.1-0.1-0.2-0.2-0.2-0.3c0-0.4,0.4-0.8,1.1-1.2c0.3,0.1,0.5,0.3,0.7,0.6c0,0.1,0.2,0.3,0.4,0.8l0.5-0.1l0.1,1h0.9l-0.1-0.1
	c0-0.5,0.2-0.8,0.5-1.1l-0.7-0.7c0.1-0.2,0.3-0.4,0.6-0.4c0.3,0,0.7,0.2,1.1,0.5c0-0.3,0.3-0.8,0.6-1.6c0.3-0.7,0.4-1.2,0.4-1.6
	c0-0.3-0.1-0.5-0.2-0.8c0.8-0.7,1.5-2,2-3.9c0.5-1.9,1-3.1,1.6-3.8c0.1,0.1,0.1,0.3,0.1,0.6c0,0.1,0,0.2,0,0.4c0,0.2,0,0.3,0,0.4
	c0,0.5,0.3,0.8,0.8,0.8l-0.7,0.7v7.6c0.3,0.3,0.4,0.8,0.4,1.3c0,0.8,0,1.2-0.1,1.3h0.5c0-0.1,0.1-0.3,0.3-0.5
	c0.2-0.2,0.2-0.4,0.2-0.5c0-0.1-0.1-0.2-0.2-0.4l0.7-0.9l0.5,1l0.1-0.1l0.7,0.7l-0.4,0.5h0.8c0.3-0.3,0.6-0.7,0.9-1
	c0.3-0.3,0.4-0.7,0.4-1.2c0.2,0,0.5,0.1,0.8,0.4c0.3,0.3,0.6,0.4,0.9,0.4c-0.1,0.1-0.3,0.3-0.7,0.5c-0.3,0.2-0.5,0.4-0.5,0.6
	c0,0.1,0,0.2,0.1,0.3l3.1-0.1l4.2-10.7l-0.7-0.7c0.5-0.4,0.9-0.6,1.2-0.7C239.8,21.9,240.9,19.1,242.8,14z"/>
<path class="st0" d="M268.2,5.9c-0.5-0.2-0.8-0.1-1,0.1c-1.3,0-3.2,0-5.6,0.1c-2.5,0.1-4.3,0.1-5.5,0.1c-3.1,0-5.8-0.2-8.1-0.6
	l-0.5,1.9c1.6,1,4.2,1.5,8,1.4c-0.8,0.4-1.8,0.5-3.1,0.5c0,0.2,0.1,0.3,0.1,0.5c0,0.4-0.2,0.8-0.6,1.4c-0.4,0.6-0.6,1.1-0.6,1.4
	c0,0.3,0.1,0.6,0.3,0.9c-1,0.4-1.5,1.4-1.5,3.1c-0.8,1.2-1.5,2.8-2.2,4.8l-1.7,4.9l1.3-0.8c0,0.6-0.6,1.2-1.7,2
	c-1.4,2.6-2.2,4.9-2.4,6.6h0.9l-0.1-0.1c-0.2-0.1-0.3-0.3-0.3-0.6c0-0.3,0.2-0.6,0.5-1c0.1-0.1,0.3-0.2,0.5-0.2
	c0.2,0,0.4,0.1,0.7,0.3c0.2,0.2,0.4,0.4,0.4,0.5c0,0.1-0.2,0.4-0.7,0.9h8.1l8.4-22v-1c0.3-1.2,1.3-1.8,2.9-1.8c0.3,0,0.8,0,1.4,0.1
	c0.6,0.1,1.1,0.1,1.4,0.1c0.6,0,1.1-0.1,1.5-0.3l-1.1-0.3l1.2-0.6c0.4-0.5,0.6-1.1,0.6-1.7c0-0.4-0.1-0.8-0.4-0.9
	C269,6,268.7,6,268.2,5.9z"/>
<g>
	<rect x="7.6" y="26.4" class="st1" width="31.7" height="11.2"/>
	<path class="st1" d="M37.4,36.3c1.1-2.4,1.7-5.1,1.7-8c0-9.8-7-17.7-15.7-17.7c-8.7,0-15.7,7.9-15.7,17.7c0,2.9,0.6,5.6,1.7,8H37.4
		z"/>
	<path class="st2" d="M38.8,32.1c0.1,0.1,0.2,0.2,0.3,0.3v-0.3H38.8z"/>
	<path class="st2" d="M32.3,17.4c-0.4,0-0.6,0.1-0.9,0.2h0.7C32.2,17.5,32.3,17.5,32.3,17.4z"/>
	<path class="st2" d="M31.3,18.3C31.3,18.3,31.3,18.3,31.3,18.3C31.3,18.3,31.3,18.3,31.3,18.3l0,0.1C31.3,18.4,31.3,18.3,31.3,18.3
		z"/>
	<path class="st2" d="M31.5,18.1L31.5,18.1C31.4,18.1,31.4,18.1,31.5,18.1C31.4,18.1,31.4,18.1,31.5,18.1z"/>
	<path class="st2" d="M15.1,28.6c-0.1,0-0.1,0.1-0.2,0.1c-0.1,0-0.1,0.1-0.2,0.1h0.1C15,28.7,15,28.6,15.1,28.6z"/>
	<path class="st2" d="M31.7,18.9C31.7,18.9,31.7,18.9,31.7,18.9c0,0.1,0,0.1,0,0.1c0,0,0.1,0,0.1,0C31.9,19,31.8,18.9,31.7,18.9
		C31.8,18.9,31.7,18.9,31.7,18.9z"/>
	<path class="st2" d="M35.9,18.1h-2.2c0,0.2-0.1,0.4-0.1,0.5c0,0.1-0.1,0.1-0.1,0.1c0,0.2,0,0.3-0.1,0.4c0,0.1,0,0.1,0,0.2
		c0,0,0,0.1,0,0.1c-0.1,0.1-0.2,0.2-0.3,0.2c0,0,0,0,0,0c-0.1,0.2-0.1,0.4-0.2,0.7c0,0.1,0,0.1-0.1,0.2h4.5
		C36.8,19.6,36.3,18.8,35.9,18.1z"/>
	<path class="st2" d="M33.6,15.3H21c0.1,0,0.1,0.1,0.2,0.1c0.4,0.3,0.8,0.6,1.1,0.9c0.1,0,0.1,0.1,0.2,0.2c0.3,0.2,0.8,0.5,0.8,0.9
		c0,0.1,0,0.2-0.1,0.3h6.5c0,0,0-0.1,0-0.1c0-0.1,0.1-0.1,0.1-0.1l0,0c0.2,0,0.4-0.1,0.5-0.2c-0.2,0-0.3,0-0.4-0.1
		c0,0-0.1-0.1-0.1-0.1c0-0.1,0-0.1,0.1-0.1c0.1,0,0.1,0,0.2,0c0,0,0.1,0,0.1,0c-0.1,0-0.1-0.1-0.2-0.1c0,0,0-0.1,0-0.1
		c0,0,0-0.1,0.1-0.1c0.2,0,0.4-0.2,0.6-0.3c0.4-0.2,0.9-0.4,1.4-0.4c0.5,0.1,0.9,0.4,1.1,0.8c0,0,0,0.1,0,0.1c0.1,0,0.2,0.1,0.2,0.2
		c0.1,0.2,0.1,0.4,0.1,0.6h1.8C35,16.8,34.3,16,33.6,15.3z"/>
	<path class="st2" d="M14.3,29.3L14.3,29.3c-0.1,0-0.1,0.1-0.2,0.1c-0.1,0.1-0.1,0.1-0.2,0.2C14.1,29.4,14.2,29.4,14.3,29.3z"/>
	<path class="st2" d="M39,29.3h-2.8c0,0,0,0.1,0.1,0.1c0.1,0.1,0.1,0.2,0.2,0.3c0.1,0.2,0.2,0.4,0.3,0.6c0.1,0.1,0.2,0.3,0.2,0.4
		c0.5,0,0.8,0.2,1.1,0.4c0.1,0.1,0.2,0.1,0.3,0.2c0,0,0.1,0,0.2,0.1c0.1,0,0.3,0.1,0.4,0.3c0,0,0,0,0,0H39V29.3z"/>
	<path class="st2" d="M38.9,26.5h-4.6c0,0.2,0.1,0.4,0.2,0.6c0.1,0.3,0.2,0.6,0.2,0.9c0,0,0,0,0-0.1c0,0,0-0.1,0.1-0.1
		c0,0,0.1,0,0.1,0c0.1,0.2,0.3,0.3,0.5,0.4c0.2,0.1,0.4,0.2,0.5,0.4c0,0,0.1,0.1,0.1,0.1H39C39,28,39,27.2,38.9,26.5z"/>
	<path class="st2" d="M37.4,20.9h-4.8c0,0.1,0.1,0.2,0.1,0.3c0,0,0,0,0,0.1c0.2,0.2,0.3,0.5,0.3,0.8c0,0,0,0,0,0.1
		c0,0.1,0,0.1-0.1,0.1c0,0,0,0,0,0c0,0,0,0,0,0c-0.1,0-0.1-0.1-0.2-0.1c-0.2-0.1-0.5-0.3-0.8-0.3c-0.1,0-0.2,0-0.3,0.1
		c0,0-0.1,0-0.1,0c-0.3-0.2-0.8-0.4-1.2-0.4c-0.1,0-0.2,0-0.3,0c-0.1,0-0.1,0-0.1-0.1c0-0.1,0-0.1,0-0.1c0.2-0.1,0.2-0.2,0.3-0.3
		c0,0-0.1,0-0.1-0.1h-1.7c-0.1,0.2-0.2,0.4-0.1,0.7c0.1,0,0.2,0.1,0.3,0.1c0.2,0,0.3,0,0.4,0.1c0,0,0.1,0.1,0.1,0.1
		c0,0.2-0.1,0.3-0.1,0.4c0,0.1-0.1,0.2-0.1,0.3c0,0.3,0.4,0.5,0.6,0.6c0,0,0,0,0,0c0-0.1,0-0.1,0.1-0.2c0,0,0.1,0,0.1,0
		c0.3,0.1,0.5,0.1,0.8,0.1c0.6,0,1.2-0.1,1.6-0.4c0,0,0,0,0-0.1c0-0.1-0.1-0.2,0-0.4c0,0,0.1,0,0.1,0c0.3,0.3,0.5,0.5,0.9,0.6
		c0,0,0-0.1,0-0.1c0-0.1,0-0.1,0.1-0.2c0,0,0.1-0.1,0.1-0.1c0,0,0,0,0,0c0,0,0,0,0.1,0c0.2,0.2,0.3,0.5,0.4,0.8h4.6
		C38,22.4,37.7,21.6,37.4,20.9z"/>
	<path class="st2" d="M5.5,3.2C5.5,3.2,5.5,3.2,5.5,3.2C5.4,3.2,5.3,3.2,5.3,3.3c0.1,0.5,0.2,0.9,0.3,1.4c0.1,0.5,0.2,1,0.3,1.5
		c1.5,1.3,4.1,3.7,6.7,6.1c0.7-0.6,1.4-1.1,2.1-1.5c-0.8-0.7-1.7-1.5-2.6-2.3C9.7,6.3,7.1,4.1,5.9,3c0,0,0,0-0.1,0
		c0,0-0.1,0.1-0.1,0.1C5.6,3.1,5.6,3.1,5.5,3.2C5.6,3.1,5.6,3.2,5.5,3.2z"/>
	<path class="st2" d="M29.8,12.5H17.5c0.6,0.5,1.1,1,1.5,1.3h0.2c0,0,0,0,0.1,0c0.4,0.3,0.8,0.7,1.2,1h12.7
		C32.1,13.9,31,13.1,29.8,12.5z"/>
	<path class="st2" d="M16.4,27.2c-0.1,0.2-0.2,0.4-0.3,0.5c0.2-0.1,0.3-0.2,0.5-0.3c0.1-0.1,0.2-0.1,0.3-0.2
		c0.2-0.1,0.5-0.3,0.6-0.4c-0.3,0-0.7,0-0.9-0.1c0,0,0,0,0,0.1C16.5,26.9,16.5,27,16.4,27.2L16.4,27.2z"/>
	<path class="st2" d="M27.4,22.8c-0.2,0.1-0.4,0-0.5-0.1c-0.1,0-0.2-0.1-0.4-0.1c0,0,0,0.1,0,0.1c0,0.1,0,0.1-0.1,0.1
		c-0.1,0-0.3,0-0.4-0.1c-0.1,0-0.1-0.1-0.2-0.1c0.1,0.2,0.3,0.3,0.5,0.4h0.7c0,0,0,0,0,0c0,0,0-0.1,0.1-0.1c0.1,0,0.3,0,0.4,0
		c0,0,0.1,0,0.1,0c0,0,0,0,0,0c0,0-0.1-0.1-0.1-0.1c0-0.1,0-0.1,0-0.1c0,0,0,0,0,0c0,0-0.1-0.1-0.1-0.1c0,0-0.1-0.1-0.1-0.1
		C27.5,22.7,27.5,22.7,27.4,22.8C27.5,22.8,27.5,22.8,27.4,22.8z"/>
	<path class="st2" d="M24.3,22.2c0.1-0.2,0.3-0.2,0.5-0.2c0.3,0,0.5,0.1,0.6,0.3c0,0,0,0,0,0c0.2-0.1,0.4-0.2,0.5-0.2
		c0.2-0.1,0.5-0.2,0.6-0.3c0,0,0.1,0,0.1,0c0.1,0,0.1,0,0.2,0c0,0,0.1,0,0.1,0c0.1-0.2,0.2-0.4,0.3-0.6c-0.1,0-0.1,0-0.2,0
		c-0.2,0-0.5,0-0.7,0c-0.3,0-0.6-0.1-0.9,0c0,0-0.1,0-0.1-0.1c0,0,0,0,0-0.1c0,0,0,0-0.1,0c-0.2,0-0.4,0.1-0.5,0.1
		c-0.1,0-0.1-0.1-0.1-0.1c-0.1,0-0.1,0.1-0.2,0.1c-0.1,0.1-0.2,0.1-0.3,0.1c-0.3,0-0.7-0.1-1-0.3l-0.1,0c0,0,0,0-0.1,0H22
		C22.7,21.4,23.4,21.9,24.3,22.2z"/>
	<path class="st2" d="M15.4,14.8h4c-0.1-0.1-0.3-0.2-0.4-0.4c0,0,0,0,0,0c-0.1-0.1-0.1-0.2-0.1-0.3l0,0c-0.5-0.4-1.1-1-1.9-1.6
		C16,13,15.3,13.5,14.5,14C14.8,14.3,15.1,14.6,15.4,14.8z"/>
	<path class="st2" d="M4.4,3.9C4.4,3.9,4.4,3.9,4.4,3.9C4.3,3.9,4.3,4,4.2,4C4.1,4.1,4,4.2,4,4.3c0.3,0.2,0.5,0.5,0.8,0.7
		C5,5.3,5.3,5.6,5.5,5.8c-0.1-0.3-0.2-0.7-0.2-1C5.2,4.3,5.1,3.9,5,3.4C4.8,3.5,4.6,3.7,4.4,3.9C4.4,3.9,4.4,3.9,4.4,3.9L4.4,3.9z"
		/>
	<path class="st2" d="M14.2,13.8c0.7-0.6,1.5-1.1,2.2-1.5c-0.2-0.2-0.4-0.3-0.6-0.5c-0.8,0.4-1.5,0.9-2.2,1.5
		C13.8,13.4,14,13.6,14.2,13.8z"/>
	<path class="st2" d="M13.4,30c0.1,0,0.1-0.1,0.2-0.1c0,0,0,0,0,0c0,0,0,0,0,0C13.5,29.9,13.4,30,13.4,30z"/>
	<path class="st2" d="M17.2,27.8c-0.2,0.2-0.5,0.4-0.7,0.6C16.7,28.3,17,28.1,17.2,27.8z"/>
	<path class="st2" d="M20.5,19.4c0,0,0.1-0.1,0.1-0.1c0,0,0.1,0,0.1,0.1c0,0,0,0,0,0.1c0,0,0,0,0,0c0.1,0.1,0.1,0.1,0.1,0.2
		c0,0,0,0,0,0c0,0,0,0,0,0c0,0,0,0.1,0.1,0.1c0,0,0,0.1,0,0.1c0,0,0.1,0,0.1,0c0,0,0.1,0,0.1,0c0,0,0,0.1,0,0.1c0,0,0,0,0,0.1
		c0.1,0,0.2,0,0.4,0c0.1-0.1,0.1-0.3,0.3-0.4c-0.1,0-0.2-0.1-0.4-0.1c-0.1,0-0.1,0-0.1-0.1c0,0,0,0,0,0c0,0,0,0,0,0c0,0,0,0,0,0
		c0-0.2,0.1-0.3,0.2-0.4c0,0,0.1-0.1,0.1-0.1l0.1-0.2c0.2-0.2,0.3-0.5,0.5-0.7h-3.2C19.5,18.6,20,19.1,20.5,19.4z"/>
	<path class="st2" d="M18.4,17.6h4c0,0,0.1-0.1,0.1-0.1c-0.6-0.5-1.2-1-1.8-1.5c-0.3-0.2-0.5-0.5-0.8-0.7h-4
		C16.8,16.1,17.7,16.9,18.4,17.6z"/>
	<path class="st2" d="M11.8,31c0,0,0.1,0.1,0.1,0.1C11.9,31.1,11.9,31.1,11.8,31C11.8,31,11.8,31,11.8,31z"/>
	<path class="st2" d="M4.9,5.6c-0.4-0.3-0.7-0.7-1.1-1c0,0,0,0.1,0,0.1C3.7,4.8,3.6,4.9,3.6,5c0,0,0,0,0,0.1c0,0.1-0.1,0.2-0.1,0.4
		c0,0.1-0.1,0.3-0.1,0.5c0.4,0,0.7,0,1.1,0.1C4.7,6,5,6,5.3,6C5.2,5.9,5,5.7,4.9,5.6z"/>
	<path class="st2" d="M11.6,32.5c0.1,0.2,0.3,0.4,0.3,0.6c-0.6,0.2-1.2-0.1-1.9-0.2c-0.6-0.2-1.3-0.3-1.8-0.5
		c-0.1,0-0.2-0.1-0.3-0.2H7.7v0.2c1.2,0.5,2.4,0.9,3.8,1c-0.2,0.2-0.5,0.2-0.7,0.4c0.9-0.2,1.6-0.6,2.4-0.9c1.1,0.8,2.4,1.7,4,1.8
		c0.2,0,0.6,0,0.8-0.1c-1-0.1-1.7-0.4-2.4-0.8c2.3,0.2,4.2-0.6,5.8-1.3c1,0.6,2.1,1.1,3.5,1c-0.8,0.5-1.9,0.6-3.1,0.7
		c0.5,0.2,1.1,0.3,1.6,0.5c-0.3,0.2-0.8,0.2-1.2,0.3c0.8,0,1.8,0,2.4-0.2c-0.6-0.1-1.2-0.2-1.6-0.5c1.6-0.1,2.8-0.5,4-1.1
		c0.3-0.2,0.9-0.6,1.2-0.6c0.3,0,0.8,0.4,1.1,0.5c1.2,0.5,2.4,1,3.9,0.9c-0.9-0.1-1.7-0.3-2.2-0.8c1.7-0.7,4.1-0.4,5.5,0.4
		c-0.4,0.4-1.3,0.4-2,0.5c1.7,0.3,3.3-0.3,4.4-1v0c-0.5,0-1.1,0-1.4-0.1c0.2,0,0.5,0,0.7-0.1c-0.7,0-1-0.3-1.4-0.7
		c0,0-0.1-0.1-0.1-0.1h-24c-0.1,0.3-0.3,0.6-0.5,0.8c0,0,0,0-0.1,0c0,0,0,0,0,0c0,0-0.1,0-0.1,0c-0.2-0.3-0.5-0.5-0.7-0.8h-0.3
		C11.4,32.2,11.5,32.3,11.6,32.5z M16.3,32.6c0.4,0.4,1,0.7,1.8,0.7c0,0.1-0.2,0.1-0.3,0.1c-0.7,0.2-1.8,0.1-2.4,0
		c-0.2,0-0.6-0.1-0.7-0.2C15.5,33.2,15.9,32.8,16.3,32.6z"/>
	<path class="st2" d="M33.4,28.3c-0.2-0.2-0.3-0.5-0.4-0.8c-0.1-0.1-0.1-0.3-0.2-0.4c-0.1-0.2-0.2-0.4-0.3-0.6h-4
		c-0.5,0.6-1.2,0.9-1.9,0.9c-0.1,0-0.1-0.1-0.1-0.1c0-0.1,0-0.1,0-0.2c0,0,0,0.1-0.1,0.1c-0.1,0.1-0.1,0.2-0.2,0.3c0,0,0,0,0,0.1
		c-0.5,0.5-1.3,0.6-1.9,0.6c-0.4,0-0.7,0-1.1-0.1c-0.1,0-0.3,0-0.4,0c-1-0.1-2,0-2.9,0.1c0,0-0.1,0-0.1,0c0,0,0-0.1-0.1-0.2
		c-0.6,0-0.8,0.3-1,0.7c0,0.1-0.1,0.1-0.1,0.2h14.8C33.5,28.6,33.4,28.5,33.4,28.3z"/>
	<path class="st2" d="M35.7,30.9c-0.1,0-0.1-0.1-0.2-0.1c-0.2-0.2-0.4-0.3-0.7-0.5c-0.1-0.1-0.2-0.1-0.2-0.2
		c-0.3-0.2-0.6-0.5-0.8-0.8H18.3c-0.5,0.4-1.1,0.6-1.8,0.8c-0.2,0.1-0.4,0.1-0.7,0.2c-0.3,0.1-0.7,0.3-1.1,0.5l-0.1,0.1
		c-0.1,0.1-0.3,0.1-0.4,0.2c-0.4,0.2-0.7,0.3-1,0.6h23.1C36.2,31.3,36,31.1,35.7,30.9z"/>
	<path class="st2" d="M38.8,32.7C38.8,32.7,38.7,32.7,38.8,32.7C38.8,32.7,38.8,32.7,38.8,32.7C38.8,32.7,38.8,32.7,38.8,32.7z"/>
	<path class="st2" d="M7.7,28.8h5c0.2-0.2,0.3-0.5,0.5-0.7c0.1-0.2,0.3-0.4,0.4-0.6c0.1-0.1,0.2-0.3,0.3-0.4
		c0.1-0.1,0.2-0.3,0.3-0.4c0-0.1,0.1-0.1,0.1-0.2H7.9C7.8,27.2,7.8,28,7.7,28.8z"/>
	<path class="st2" d="M9.4,30c0.5,0.5,1,1,1.5,1.6h0.3c-0.7-0.8-1.4-1.7-2.4-2.3C9,29.5,9.2,29.8,9.4,30z"/>
	<path class="st2" d="M8,26h6.7c0,0,0-0.1,0-0.1c0.1-0.3,0.3-0.6,0.4-0.8c0,0,0.1,0,0.1,0c0.1,0,0.2-0.1,0.4-0.2
		c0.1-0.1,0.3-0.2,0.4-0.2c0.1,0,0.3,0,0.4,0.1c0,0,0-0.1,0-0.1c0,0,0-0.1,0.1-0.1c0.5-0.1,0.9-0.3,1.5-0.4c0.6-0.2,1.2-0.4,1.9-0.5
		h-0.6c-0.1,0.1-0.1,0.1-0.2,0.1c0,0,0,0,0,0c0,0-0.1,0-0.1,0c0,0-0.1-0.1-0.1-0.1H8.4C8.2,24.4,8.1,25.2,8,26z"/>
	<path class="st2" d="M32.2,24.9C32.2,24.9,32.1,24.9,32.2,24.9c-0.2-0.1-0.4,0-0.6,0c-0.1,0-0.2,0.1-0.4,0.1c-0.1,0-0.3,0-0.4,0
		c-0.2,0-0.3,0-0.5,0c-0.2,0-0.4,0.1-0.6,0.2c-0.3,0.1-0.5,0.2-0.8,0.2c0,0.1,0,0.1,0,0.2c0,0,0,0.1-0.1,0.1c0,0-0.1,0-0.1,0.1
		c0,0,0,0,0.1,0.1c0,0,0,0,0,0.1h3.6C32.2,25.7,32.2,25.3,32.2,24.9z"/>
	<path class="st2" d="M23.4,23.2C23.4,23.2,23.4,23.2,23.4,23.2c0.2-0.1,0.2-0.1,0.3-0.2c-0.1-0.1-0.2-0.2-0.3-0.4
		c-0.2-0.2-0.5-0.5-0.8-0.7l-0.1-0.1c-0.2-0.2-1-0.9-1.2-0.9h0c-0.1,0-0.1,0.1-0.2,0.1c0,0-0.1,0.1-0.1,0.1c0,0,0,0,0,0
		c0,0,0,0.1,0,0.1c-0.3,0.4-0.6,0.8-0.8,1.2c-0.2,0.2-0.3,0.5-0.5,0.7L23.4,23.2C23.4,23.2,23.4,23.2,23.4,23.2z"/>
	<path class="st2" d="M11,29.8C11,29.8,11,29.9,11,29.8C11,30,11,30.1,11,30.1c0,0,0,0,0,0c0,0,0.1,0,0.1,0c0,0,0,0,0,0
		c0,0,0.1,0,0.1,0c0,0,0,0,0,0c0.4-0.2,0.8-0.6,1.1-0.9H9.9C10.3,29.4,10.7,29.6,11,29.8z"/>
	<path class="st2" d="M9.3,29.3C9.3,29.3,9.4,29.3,9.3,29.3L9.3,29.3C9.3,29.3,9.3,29.3,9.3,29.3z"/>
	<path class="st2" d="M9.6,20.4h6.2c-0.3-0.3-0.6-0.6-0.9-0.9c0,0,0-0.1,0-0.1c0,0,0,0,0-0.1c0,0,0-0.1,0-0.2
		c-0.3-0.3-0.6-0.6-1-1.1h-2.9C10.4,18.8,10,19.6,9.6,20.4z"/>
	<path class="st2" d="M14.9,36.3c0.3,0.2,0.7,0.3,1,0.4c-0.1,0.2-0.3,0.4-0.4,0.5h0.3c0.2-0.1,0.4-0.2,0.6-0.3
		c0.3,0.1,0.6,0.2,0.9,0.3h1.9c-1.4-0.4-2.8-1-4-1.7c-0.7,0.6-1.4,1.2-2.1,1.7h0.5C14,37,14.5,36.6,14.9,36.3z"/>
	<path class="st2" d="M7.7,37.2v-0.9c0.7,0.1,2.6,0.4,2.9,0.3c0,0-0.1,0-0.1,0c-0.4-0.1-2.2-0.4-2.8-0.6v-1.2c1.4,0.5,4.2,1.4,5.8,1
		c-2.2,0-4.3-0.7-5.8-1.5c0,0,0,0,0,0L7.7,37.2L7.7,37.2z"/>
	<path class="st2" d="M8.6,23.2h9.8c-0.5-0.5-1-1.1-1.5-1.6c-0.2-0.2-0.4-0.5-0.6-0.7H9.4C9.1,21.6,8.8,22.4,8.6,23.2z"/>
	<path class="st2" d="M26.4,34.6c0.4,0.1,0.9-0.2,1.3-0.4c0.5,0.2,1,0.4,1.7,0.4c-0.5-0.2-1.2-0.4-1.6-0.7
		C27.3,34.2,26.9,34.5,26.4,34.6z"/>
	<path class="st2" d="M22.6,18.6c-0.2,0.3-0.4,0.5-0.6,0.8c0.2,0,0.4,0.1,0.6,0.1c0,0,0,0,0,0c0,0,0.1,0,0.1,0c0.3,0.1,0.7,0,1-0.1
		c0.2,0,0.3-0.1,0.5-0.1c0.1,0,0.2,0,0.3,0c0.3,0,0.4,0,0.5,0.1c0,0,0.1,0.1,0.1,0.1c0,0,0,0,0,0c0.1,0,0.3,0,0.4,0c0,0,0.1,0,0.1,0
		c0,0,0,0.1,0,0.1c0,0.2-0.1,0.3-0.2,0.3c0.3-0.1,0.7-0.1,1.1-0.2c0.3,0,0.5-0.1,0.8-0.1c-0.1,0-0.3,0-0.5,0l-0.3,0
		c-0.1,0-0.3,0-0.4,0c0,0-0.1-0.1-0.1-0.1c0,0,0-0.1,0.1-0.1c0.2-0.1,0.4-0.1,0.6-0.1c0.1,0,0.3,0,0.4,0c0.2,0,0.4,0,0.6,0
		c0.2,0,0.3-0.1,0.5-0.2c0.2-0.1,0.3-0.3,0.6-0.2c0,0,0.1,0,0.1,0.1c0,0,0,0.1,0,0.1c-0.1,0.1-0.1,0.1-0.2,0.2
		c-0.1,0-0.1,0.1-0.2,0.1c0.2-0.1,0.4-0.1,0.6-0.1c0.2,0,0.4-0.1,0.5-0.1c0,0-0.1-0.1-0.2-0.1c-0.1,0-0.2-0.1-0.3-0.1
		c0,0,0-0.1,0-0.1c0,0,0-0.1,0.1-0.1c0.1,0,0.2-0.1,0.3-0.1c0.4,0,0.6,0.3,0.9,0.5c0.1,0.1,0.1,0.2,0.2,0.2c-0.1-0.3-0.1-0.5,0-0.7
		c0,0,0.1-0.1,0.1-0.1c0,0,0.1,0,0.1,0.1c0.1,0.2,0.1,0.4,0.1,0.7c0,0,0,0,0,0c0,0,0,0,0.1,0c0,0,0,0,0,0c0,0-0.1-0.1-0.1-0.1
		c0,0,0-0.1,0-0.1c0,0,0,0,0.1,0c0.2,0,0.2-0.1,0.3-0.4c-0.1,0-0.1,0.1-0.2,0.1c-0.1,0-0.2,0-0.3-0.1c0,0,0-0.1-0.1-0.1
		c0,0-0.1,0-0.1,0c-0.1,0-0.2-0.1-0.3-0.2c0,0,0-0.1,0-0.1c0,0,0,0,0,0c0,0,0,0-0.1,0c-0.1,0-0.1-0.1-0.1-0.1H23
		C22.8,18.2,22.7,18.4,22.6,18.6z"/>
	<path class="st2" d="M20.3,34.8c-0.7,0.5-1.6,0.9-2.6,1.1c-0.1,0-0.2,0-0.3,0c-0.1,0-0.1,0,0,0c1.1,0.1,2.1-0.2,2.8-0.7
		c0.8,0.8,2,1.1,3.6,1.1C22.4,36.1,21.2,35.7,20.3,34.8C20.4,34.8,20.4,34.8,20.3,34.8z"/>
	<path class="st2" d="M23.4,10.8c-1.9,0-3.8,0.4-5.5,1.2h11C27.2,11.3,25.3,10.8,23.4,10.8z"/>
	<path class="st2" d="M13.3,17.6c-0.4-0.4-0.8-0.8-1.2-1.2c-0.3,0.4-0.6,0.8-0.9,1.2H13.3z"/>
	<path class="st2" d="M30.9,35.6C30.9,35.6,30.8,35.6,30.9,35.6c-0.1-0.1-0.2-0.1-0.2-0.1c-0.9,0.9-2.6,1.4-4.1,1.6
		c1.6,0.2,3-0.3,3.9-1c0.5,0.6,1.1,1,1.9,1.2h1.3C32.6,36.9,31.6,36.4,30.9,35.6z"/>
	<path class="st2" d="M6.5,31.2c0.2,0.2,0.4,0.4,0.6,0.5c-0.2-0.1-0.4-0.2-0.6-0.3v0.3c0.3,0.1,0.5,0.3,0.8,0.4v-0.6
		c-0.4-0.4-0.7-0.9-0.7-1.2c0-0.3,0.4-0.9,0.7-1.2v-0.1c0-5,1.7-9.6,4.5-13c-0.2-0.2-0.4-0.4-0.6-0.6c-2.9,3.4-4.7,8-4.7,13.1V31.2z
		"/>
	<polygon class="st2" points="39,33.9 39,33.9 39,33.9 39,37.2 39,37.2 	"/>
	<path class="st2" d="M38.3,23.7h-4.6c0,0.4,0,0.8-0.1,1.1l0,0c0.2,0.3,0.3,0.5,0.4,0.8c0,0,0,0,0,0.1c0,0.1,0,0.1-0.1,0.1
		c0,0,0,0,0,0c0,0-0.1,0-0.1,0c-0.1-0.1-0.1-0.2-0.2-0.3c-0.1-0.2-0.2-0.5-0.4-0.5c0.2,0.5,0.4,0.9,0.7,1.1h4.8
		C38.7,25.2,38.5,24.4,38.3,23.7z"/>
	<path class="st2" d="M31,20c0-0.1,0-0.1,0-0.2c0,0-0.1,0-0.1-0.1C30.9,19.8,30.9,19.9,31,20C31,20,31,20,31,20z"/>
	<path class="st2" d="M30.5,18.1c0.1,0,0.1,0,0.2-0.1h0C30.6,18.1,30.6,18.1,30.5,18.1C30.5,18.1,30.5,18.1,30.5,18.1z"/>
	<path class="st2" d="M14.8,14.8c-0.2-0.2-0.4-0.4-0.6-0.5c-0.2,0.2-0.4,0.4-0.6,0.5H14.8z"/>
	<path class="st2" d="M35,28.8h0.2c-0.1-0.1-0.1-0.2-0.2-0.3c-0.1-0.1-0.2-0.3-0.3-0.4c0,0,0,0.1,0,0.1c0,0.1,0,0.2-0.1,0.3
		C34.7,28.6,34.9,28.7,35,28.8z"/>
	<path class="st2" d="M12.4,16.1c0.6,0.5,1.1,1.1,1.5,1.5h3.9c-0.8-0.7-1.6-1.5-2.5-2.3h-2.1C12.9,15.5,12.7,15.8,12.4,16.1z"/>
	<path class="st2" d="M12.1,15.8c0.6-0.7,1.2-1.3,1.8-1.8c-0.2-0.2-0.4-0.4-0.6-0.6c-0.6,0.5-1.3,1.1-1.8,1.8
		C11.7,15.4,11.9,15.6,12.1,15.8z"/>
	<path class="st2" d="M10.6,14.3c0.6-0.6,1.2-1.2,1.8-1.8c-0.2-0.1-0.3-0.3-0.5-0.4C9.4,9.8,7.1,7.6,5.7,6.4l-0.4,0
		c-0.7,0-1.3-0.1-2-0.2c0,0,0,0.1,0,0.1c0,0,0,0,0,0c0,0,0,0.1,0,0.1c0,0,0,0,0,0c0,0,0,0.1,0,0.1c0,0,0,0.1,0,0.1
		c0,0.1-0.1,0.2-0.1,0.3c1.1,1.2,3.3,3.3,5.7,5.6C9.4,13.1,10,13.7,10.6,14.3z"/>
	<path class="st2" d="M19.1,22.8c0.1-0.2,0.2-0.4,0.4-0.6c0.1-0.1,0.2-0.2,0.3-0.4c0,0,0.1-0.1,0.2-0.2c0.1-0.2,0.4-0.5,0.5-0.7
		c0,0-0.1,0-0.1-0.1h-3C17.9,21.5,18.5,22.1,19.1,22.8z"/>
	<path class="st2" d="M15.1,18.8c0,0,0.1,0,0.1,0c0,0,0,0,0,0c0,0,0.1,0,0.1,0c0.4,0.5,0.9,1,1.3,1.4c0.1,0.1,0.1,0.1,0.2,0.2h3.4
		c0-0.1,0.1-0.3,0.1-0.4c0,0,0-0.1,0-0.1c0,0,0,0,0,0c-0.5-0.5-1.2-1.1-2-1.8h-4C14.6,18.3,14.9,18.6,15.1,18.8z"/>
	<path class="st2" d="M21.1,25.2c-0.8,0.1-1.6,0.3-2.2,0.6c0.1,0.1,0.3,0.2,0.4,0.2h0.2C19.9,25.6,20.5,25.3,21.1,25.2z"/>
	<path class="st0" d="M28.9,12h-11c-0.2,0.1-0.4,0.2-0.6,0.3c0.1,0.1,0.1,0.1,0.2,0.2h12.4C29.5,12.3,29.2,12.2,28.9,12z"/>
	<path class="st0" d="M30,12L30,12C29.9,12,30,12,30,12L30,12z"/>
	<path class="st0" d="M33.1,14.8H20.5c0.2,0.2,0.4,0.3,0.6,0.5h12.6C33.4,15.1,33.3,15,33.1,14.8z"/>
	<path class="st0" d="M13.2,15.3h2.1c-0.2-0.2-0.3-0.3-0.5-0.5h-1.2C13.5,15,13.3,15.1,13.2,15.3z"/>
	<path class="st0" d="M15.9,15.3h4c-0.2-0.2-0.4-0.3-0.6-0.5h-4C15.5,15,15.7,15.1,15.9,15.3z"/>
	<path class="st0" d="M35.5,17.6h-1.8c0,0.2,0,0.3,0,0.5h2.2C35.8,17.9,35.7,17.8,35.5,17.6z"/>
	<path class="st0" d="M30.6,18C30.6,18,30.6,18,30.6,18C30.6,18,30.6,18.1,30.6,18L30.6,18C30.6,18.1,30.6,18.1,30.6,18z"/>
	<path class="st0" d="M14.4,18.1h4c-0.2-0.1-0.3-0.3-0.5-0.5h-3.9C14.1,17.8,14.2,17.9,14.4,18.1z"/>
	<path class="st0" d="M23,18C23,18,23,18.1,23,18l7.1,0c0,0,0,0,0-0.1c0-0.1,0.1-0.1,0.1-0.1c-0.2,0-0.3-0.1-0.5-0.2c0,0,0,0,0,0
		h-6.5C23.2,17.7,23.1,17.9,23,18z"/>
	<path class="st0" d="M18.9,18.1h3.2c0.1-0.2,0.2-0.3,0.3-0.5h-4C18.6,17.8,18.8,17.9,18.9,18.1z"/>
	<path class="st0" d="M10.9,18.1h2.9c-0.1-0.1-0.3-0.3-0.5-0.5h-2.1C11.1,17.8,11,17.9,10.9,18.1z"/>
	<path class="st0" d="M31.5,18C31.5,18,31.6,18,31.5,18L31.5,18c0.1,0,0.2,0,0.2,0c0,0,0-0.1,0.1-0.1c0.2-0.1,0.3-0.2,0.4-0.3h-0.7
		c-0.1,0.1-0.2,0.1-0.3,0.2c0.1,0,0.2,0,0.2,0.1c0,0,0,0.1,0.1,0.1L31.5,18C31.5,18,31.5,18,31.5,18z"/>
	<path class="st0" d="M9.4,20.9h6.8c-0.1-0.2-0.3-0.3-0.4-0.5H9.6C9.6,20.6,9.5,20.7,9.4,20.9z"/>
	<path class="st0" d="M37.2,20.4h-4.5c-0.1,0.1-0.1,0.3-0.1,0.4c0,0,0,0,0,0h4.8C37.3,20.7,37.2,20.6,37.2,20.4z"/>
	<path class="st0" d="M17.3,20.9h3c0,0,0,0,0,0c-0.1-0.1-0.1-0.3-0.1-0.4h-3.4C17,20.6,17.1,20.7,17.3,20.9z"/>
	<path class="st0" d="M22.1,20.5c-0.1,0-0.1,0.1-0.2,0.1c0,0-0.1,0.1-0.2,0.1c0.1,0.1,0.1,0.1,0.2,0.2h1.1c-0.1,0-0.2-0.1-0.2-0.1
		C22.6,20.6,22.4,20.4,22.1,20.5z"/>
	<path class="st0" d="M29.6,20.8c-0.2,0-0.4,0-0.6,0.1c-0.1,0-0.3,0-0.4,0c0,0,0,0,0,0c-0.1,0-0.1-0.1-0.1-0.1c0,0,0,0,0,0
		c0,0-0.1,0.1-0.1,0.1h1.7C30,20.8,29.8,20.8,29.6,20.8z"/>
	<path class="st0" d="M27.4,23.5c-0.1,0-0.2-0.1-0.2-0.2c0,0,0,0,0-0.1h-0.7C26.6,23.3,27,23.4,27.4,23.5z"/>
	<path class="st0" d="M21.4,23.5c0.4,0,0.8,0,1.2,0.1c0,0,0-0.1,0-0.1c0-0.1,0-0.1,0.1-0.1c0.2,0,0.5,0,0.7,0c0,0,0,0,0-0.1
		c0,0,0-0.1,0-0.1h-3.8c0,0,0,0,0,0l0,0c-0.1,0.1-0.2,0.3-0.3,0.4h0.6C20.4,23.6,20.9,23.5,21.4,23.5z"/>
	<path class="st0" d="M8.4,23.7h10.4c-0.2-0.2-0.3-0.3-0.4-0.5H8.6C8.5,23.4,8.5,23.5,8.4,23.7z"/>
	<path class="st0" d="M38.2,23.2h-4.6c0,0.1,0,0.3,0,0.5h4.6C38.3,23.5,38.2,23.4,38.2,23.2z"/>
	<path class="st0" d="M19.2,26c0,0,0.1,0.1,0.1,0.1c0,0,0.1-0.1,0.1-0.1H19.2z"/>
	<path class="st0" d="M38.8,26H34c0,0,0.1,0.1,0.1,0.1c0,0,0.1,0,0.1,0.1c0,0.1,0,0.2,0.1,0.3h4.6C38.9,26.3,38.8,26.2,38.8,26z"/>
	<path class="st0" d="M7.9,26.5h6.6c0.1-0.1,0.2-0.3,0.2-0.5H8C7.9,26.2,7.9,26.3,7.9,26.5z"/>
	<path class="st0" d="M32.3,26h-3.6c0,0,0,0,0,0.1c-0.1,0.1-0.2,0.3-0.3,0.4h4C32.4,26.3,32.4,26.2,32.3,26z"/>
	<path class="st0" d="M18.2,26.2c0.1,0.1,0.2,0.1,0.3,0.1c0,0,0,0,0-0.1C18.4,26.1,18.2,26.1,18.2,26.2z"/>
	<path class="st0" d="M14.9,28.8h-0.1c-0.2,0.1-0.3,0.3-0.5,0.5h0.1C14.5,29.1,14.7,29,14.9,28.8z"/>
	<path class="st0" d="M7.7,29C8,29,8.2,29,8.4,29.1c0,0,0,0,0-0.1c0-0.1,0.1-0.1,0.1-0.1c0.3,0,0.5,0.1,0.7,0.2
		c0.1,0,0.1,0.1,0.2,0.1h0c0.1-0.1,0.1-0.1,0.2-0.1l0,0c0,0,0,0,0,0c0.1,0,0.2,0.1,0.3,0.1h2.5c0.1-0.1,0.2-0.3,0.4-0.5h-5
		C7.7,28.9,7.7,28.9,7.7,29z"/>
	<path class="st0" d="M35.2,28.9C35.2,28.8,35.2,28.8,35.2,28.9L35,28.8C35.1,28.8,35.2,28.9,35.2,28.9z"/>
	<path class="st0" d="M33.5,28.8H18.7c-0.1,0.1-0.1,0.2-0.2,0.3c-0.1,0.1-0.1,0.1-0.2,0.2h15.5C33.7,29.1,33.6,29,33.5,28.8z"/>
	<path class="st0" d="M39,29.1c0-0.1,0-0.2,0-0.3H36c0.1,0.1,0.2,0.3,0.3,0.5H39V29.1z"/>
	<path class="st0" d="M7.8,32.1c0,0-0.1-0.1-0.1-0.1v0.1H7.8z"/>
	<path class="st0" d="M36.5,31.8C36.5,31.8,36.5,31.8,36.5,31.8c-0.1-0.1-0.1-0.2-0.1-0.2H13.3c-0.1,0.1-0.1,0.1-0.1,0.2
		c0,0-0.1,0.1-0.1,0.1c-0.1,0-0.1,0-0.1,0c0,0.1,0,0.1-0.1,0.2h24C36.7,32,36.6,31.9,36.5,31.8z"/>
	<path class="st0" d="M11.3,32.1h0.3c-0.1-0.1-0.2-0.2-0.3-0.3c0,0-0.1-0.1-0.1-0.1h-0.3C11,31.8,11.1,31.9,11.3,32.1z"/>
	<path class="st0" d="M39,31.6L39,31.6C39,31.6,39,31.6,39,31.6c-0.1,0.2-0.2,0.3-0.4,0.3c0,0,0.1,0.1,0.1,0.1H39V31.6z"/>
	<path class="st3" d="M10.6,14.3c0.3,0.3,0.6,0.6,0.9,0.9c0.6-0.6,1.2-1.2,1.8-1.8c-0.3-0.3-0.6-0.6-1-0.9
		C11.7,13.1,11.1,13.7,10.6,14.3z"/>
	<path class="st3" d="M5.3,37.7h1.2l0-5.6c-0.4-0.2-0.8-0.3-1.2-0.5V37.7z"/>
	<path class="st3" d="M13.3,12.9c0.1,0.1,0.2,0.2,0.3,0.3c0.7-0.6,1.5-1.1,2.2-1.5c-0.3-0.3-0.7-0.6-1.1-0.9c-0.7,0.5-1.5,1-2.1,1.5
		C12.9,12.5,13.1,12.7,13.3,12.9z"/>
	<path class="st3" d="M23.4,9.7c9.3,0,16.9,8.5,16.9,19v9h1.2v-9c0-11.2-8.1-20.4-18.1-20.4c-3,0-5.7,0.8-8.2,2.2
		c0.4,0.3,0.7,0.6,1.1,0.9C18.4,10.3,20.8,9.7,23.4,9.7z"/>
	<path class="st3" d="M6.5,31.2v-2.5c0-5.1,1.8-9.7,4.7-13.1c-0.3-0.3-0.6-0.6-0.9-0.9c-3.1,3.7-5,8.6-5,14V30c0,0,0,0,0,0.1
		C5.7,30.5,6.1,30.9,6.5,31.2z M5.7,29c0.2,0.3,0.2,0.7,0.4,1c0.1,0.2,0.3,0.4,0.3,0.6c-0.3-0.5-0.9-0.8-1-1.5
		C5.4,29.1,5.5,29,5.7,29z"/>
	<path class="st3" d="M6.5,31.4c-0.4-0.3-0.9-0.6-1.2-0.9v0.6c0.4,0.2,0.8,0.4,1.2,0.6V31.4z"/>
	<path class="st0" d="M7.7,34.3c-0.3-0.5-0.3-1-0.4-1.5v4.4h0.4V34.3z"/>
	<polygon class="st0" points="39,33 39,33 39,33 	"/>
	<path class="st0" d="M7.3,29.2c0.1-0.1,0.1-0.1,0.2-0.1c0.1,0,0.1-0.1,0.2-0.1c0-0.1,0-0.1,0-0.2c0-0.8,0.1-1.6,0.2-2.3
		c0-0.2,0-0.3,0.1-0.5c0.1-0.8,0.3-1.6,0.5-2.3c0-0.2,0.1-0.3,0.1-0.5c0.2-0.8,0.5-1.6,0.8-2.3c0.1-0.2,0.1-0.3,0.2-0.5
		c0.4-0.8,0.8-1.6,1.3-2.3c0.1-0.2,0.2-0.3,0.3-0.5c0.3-0.4,0.6-0.8,0.9-1.2c-0.1-0.1-0.2-0.2-0.3-0.3c-2.8,3.4-4.5,7.9-4.5,13V29.2
		z"/>
	<path class="st0" d="M14.5,14c0.7-0.6,1.5-1.1,2.3-1.5c-0.1-0.1-0.2-0.2-0.4-0.3c-0.8,0.4-1.5,1-2.2,1.5C14.3,13.9,14.4,14,14.5,14
		z"/>
	<path class="st0" d="M12.4,16.1c0.2-0.3,0.5-0.6,0.8-0.8c0.2-0.2,0.3-0.3,0.5-0.5c0.2-0.2,0.4-0.4,0.6-0.5
		c-0.1-0.1-0.2-0.2-0.3-0.3c-0.6,0.6-1.3,1.2-1.8,1.8C12.2,15.9,12.3,16,12.4,16.1z"/>
	<path class="st0" d="M39,37.2h0.3v0.5h0.1V33c-0.1,0.3-0.3,0.6-0.4,0.9V37.2z"/>
	<path class="st0" d="M17.3,12.3c0.2-0.1,0.4-0.2,0.6-0.3c1.7-0.8,3.6-1.2,5.5-1.2c1.9,0,3.8,0.4,5.5,1.2c0.3,0.1,0.6,0.3,0.9,0.5
		c1.2,0.6,2.3,1.4,3.3,2.3c0.2,0.1,0.3,0.3,0.5,0.5c0.7,0.7,1.4,1.5,2,2.3c0.1,0.2,0.2,0.3,0.3,0.5c0.5,0.7,0.9,1.5,1.3,2.3
		c0.1,0.1,0.1,0.3,0.2,0.5c0.3,0.8,0.6,1.5,0.8,2.3c0,0.2,0.1,0.3,0.1,0.5c0.2,0.8,0.4,1.5,0.5,2.3c0,0.2,0,0.3,0.1,0.5
		C39,27.2,39,28,39,28.8c0,0.1,0,0.2,0,0.3v0.2v2.3v0.5v0.3c0,0,0,0,0,0l0.1,0.1c0,0,0,0.1,0,0.1c0.1,0,0.2-0.1,0.3-0.1v-3.4
		c0-7.6-3.9-14.1-9.5-17c0,0,0,0,0,0c-2-1-4.2-1.6-6.6-1.6c-2.3,0-4.5,0.6-6.5,1.6C17,12.1,17.1,12.2,17.3,12.3z"/>
	<path class="st0" d="M7.7,32c-0.1-0.1-0.3-0.3-0.4-0.4v0.6c0.1,0.1,0.3,0.1,0.4,0.2V32L7.7,32z"/>
	<path class="st4" d="M7.7,29c-0.1,0-0.1,0-0.2,0.1c-0.1,0-0.1,0.1-0.2,0.1C7,29.5,6.6,30,6.6,30.4c0,0.3,0.3,0.8,0.7,1.2
		c0.1,0.1,0.3,0.3,0.4,0.4c0,0,0.1,0.1,0.1,0.1c0.1,0.1,0.2,0.2,0.3,0.2c0.5,0.3,1.2,0.4,1.8,0.5c0.6,0.2,1.3,0.4,1.9,0.2
		c0.1-0.2-0.1-0.4-0.3-0.6c-0.1-0.1-0.2-0.3-0.3-0.4c-0.1-0.2-0.3-0.3-0.4-0.5c-0.5-0.5-1-1.1-1.5-1.6c-0.2-0.2-0.4-0.5-0.7-0.7
		c-0.1-0.1-0.2-0.1-0.3-0.2c0,0,0,0-0.1-0.1C8.2,29,8,29,7.7,29z"/>
	<path class="st5" d="M17.9,33.5c0.1,0,0.3,0,0.3-0.1c-0.8,0-1.4-0.3-1.8-0.7c-0.5,0.2-0.8,0.6-1.5,0.6c0.1,0.1,0.4,0.2,0.7,0.2
		C16.1,33.5,17.2,33.6,17.9,33.5z"/>
	<path class="st4" d="M15.8,37.2h1.5c-0.3-0.1-0.6-0.2-0.9-0.3C16.1,37,16,37.1,15.8,37.2z"/>
	<path class="st4" d="M15.9,36.7c-0.3-0.1-0.7-0.3-1-0.4c-0.4,0.3-0.9,0.7-1.4,0.9h2C15.6,37.1,15.8,36.9,15.9,36.7z"/>
	<path class="st3" d="M6.4,30.7c0-0.3-0.2-0.4-0.3-0.6c-0.2-0.3-0.2-0.7-0.4-1c-0.2,0-0.2,0-0.3,0.1C5.5,29.9,6,30.1,6.4,30.7z"/>
	<path class="st3" d="M7.1,31.7c-0.2-0.2-0.4-0.3-0.6-0.5c-0.4-0.4-0.8-0.7-1.2-1.1c0,0,0,0,0-0.1c-0.1-0.2-0.3-0.5-0.6-0.2
		c-0.1,0.3,0.3,0.5,0.5,0.6c0,0,0.1,0,0.1,0.1c0.4,0.3,0.8,0.6,1.2,0.9C6.8,31.5,7,31.7,7.1,31.7z"/>
	<path class="st3" d="M39.1,32.6C39.1,32.6,39.1,32.7,39.1,32.6c-0.2,0.1-0.3,0.1-0.4,0.1c0,0,0,0,0,0c0,0-0.1,0.1-0.1,0.1
		c-0.1,0-0.2,0-0.3,0c0,0,0,0,0,0c-0.2,0-0.4,0.1-0.7,0.1C38,33,38.5,33,39,33c0,0,0,0,0,0c0,0,0,0,0,0c-1.1,0.7-2.7,1.3-4.4,1
		c0.7-0.1,1.5-0.1,2-0.5c-1.4-0.8-3.8-1.1-5.5-0.4c0.6,0.5,1.3,0.7,2.2,0.8c-1.5,0-2.6-0.4-3.9-0.9c-0.3-0.1-0.8-0.5-1.1-0.5
		c-0.3,0-0.8,0.4-1.2,0.6c-1.2,0.6-2.4,1.1-4,1.1c0.5,0.3,1,0.4,1.6,0.5c-0.6,0.3-1.6,0.3-2.4,0.2c0.4-0.1,0.8-0.1,1.2-0.3
		c-0.5-0.2-1.1-0.3-1.6-0.5c1.1-0.1,2.2-0.2,3.1-0.7c-1.4,0.1-2.6-0.4-3.5-1c-1.7,0.7-3.5,1.5-5.8,1.3c0.7,0.4,1.4,0.7,2.4,0.8
		c-0.2,0.1-0.6,0.1-0.8,0.1c-1.6-0.1-2.9-1-4-1.8c-0.8,0.3-1.5,0.7-2.4,0.9c0.2-0.1,0.5-0.2,0.7-0.4c-1.4-0.1-2.6-0.5-3.8-1
		c-0.1-0.1-0.3-0.1-0.4-0.2c-0.3-0.1-0.5-0.3-0.8-0.4c-0.4-0.2-0.8-0.4-1.2-0.6C5.1,31,5,30.9,4.8,30.8c-0.2-0.1-0.5-0.4-0.7,0
		c0,0.4,0.4,0.4,0.7,0.5c0.2,0.1,0.4,0.2,0.6,0.3c0.4,0.2,0.8,0.3,1.2,0.5c0.2,0.1,0.4,0.2,0.6,0.2c0.1,0.2,0.1,0.3,0.2,0.5
		c0.1,0.5,0.1,1,0.4,1.5c0,0,0,0,0,0c1.5,0.8,3.6,1.5,5.8,1.5c-1.6,0.4-4.4-0.5-5.8-1v1.2c0.5,0.1,2.4,0.4,2.8,0.6c0,0,0.1,0,0.1,0
		c-0.3,0.1-2.2-0.2-2.9-0.3v0.9H13c0.8-0.5,1.5-1.1,2.1-1.7c1.2,0.7,2.6,1.2,4,1.7h13.3c-0.8-0.2-1.4-0.6-1.9-1.2
		c-1,0.7-2.3,1.2-3.9,1c1.4-0.1,3.1-0.7,4.1-1.6c0,0,0.1,0,0.1,0c0,0.1,0.1,0,0.1,0.1c0.7,0.8,1.7,1.3,2.9,1.6H39v-3.4c0,0,0,0,0,0
		c0,0,0,0,0,0c0.1-0.3,0.3-0.6,0.4-0.9c0.1-0.2,0.2-0.4,0.3-0.6c-0.1,0-0.2,0.1-0.3,0.1C39.3,32.5,39.2,32.6,39.1,32.6L39.1,32.6z
		 M20.2,35.2c-0.7,0.5-1.7,0.9-2.8,0.7c0,0,0-0.1,0,0c0.1,0,0.2,0,0.3,0c1-0.2,1.9-0.6,2.6-1.1c0,0,0-0.1,0,0c0.8,0.9,2,1.3,3.4,1.5
		C22.2,36.3,21,36,20.2,35.2z M27.6,34.2c-0.3,0.2-0.8,0.5-1.3,0.4c0.6-0.1,0.9-0.4,1.4-0.7c0.4,0.4,1,0.5,1.6,0.7
		C28.6,34.6,28.1,34.4,27.6,34.2z"/>
	<polygon class="st0" points="39,37.2 39,37.2 33.8,37.2 32.4,37.2 19.1,37.2 17.2,37.2 15.8,37.2 15.5,37.2 13.5,37.2 13,37.2 
		7.7,37.2 7.7,37.2 7.3,37.2 7.3,37.2 7.3,37.7 39.3,37.7 39.3,37.7 39.3,37.2 	"/>
	<g>
		<path class="st6" d="M30.8,18.3c0,0.3,0.3,0.3,0.4,0.2c0-0.1,0-0.1,0-0.2c-0.1,0-0.1-0.1-0.3,0C31.1,18.4,31,18.3,30.8,18.3z"/>
		<g>
			<path class="st3" d="M3.9,1.9C4,2.1,4.2,1.8,3.9,1.9L3.9,1.9z"/>
			<path class="st3" d="M19.8,21.9c-0.2,0.4-0.5,0.7-0.7,1c-1.3-1.3-2.6-2.7-3.8-4.1c-0.1,0-0.2-0.1-0.2,0c-2.3-2.4-9.8-9.6-12.1-12
				c0.1-0.1,0.2-0.2,0.2-0.4C2.8,6,2.3,5.6,1.8,5.2C1.6,6.3,2.3,6.5,2.9,6.9c0.3,0.2,0.6,0.6,0.9,0.9c2,2.1,9.2,9.2,11.2,11.2
				c0,0.1,0,0.2,0,0.3c1.4,1.4,2.6,2.9,4,4.3c0.2-0.1,0.4-0.3,0.5-0.5c0.4-0.6,0.8-1.3,1.3-1.9c-0.1,0-0.2-0.2-0.3-0.3h-0.1
				C20.5,21.1,19.9,21.8,19.8,21.9z"/>
			<path class="st3" d="M22.9,17.9c0.1-0.2,0.3-0.5,0.3-0.6c0-0.3-0.7-0.7-1-0.9c-1-0.8-2.2-1.8-3.1-2.6c-0.1,0-0.1,0-0.2,0
				c-2.6-2.1-10.4-9-13-11.1c0-0.1,0-0.2,0-0.2C5.5,2.1,5.1,1.5,4.3,1.7C4.6,2.2,5.2,2.5,5.6,3c0.1,0,0.2-0.1,0.3-0.1
				C8.4,5,16.2,12,18.8,14.1c0,0.1,0.1,0.2,0.1,0.3c1.3,1,2.5,2.1,3.7,3.1c-0.3,0.5-0.7,1.1-1,1.6c-0.1,0.1-0.2,0.3-0.3,0.4h0.5
				C22.1,19,22.6,18.5,22.9,17.9z"/>
			<path class="st3" d="M20.5,19.6C17.3,16.8,9,9,5.8,6.3c-0.2-1-0.4-2-0.7-3c0.1-0.1,0.2-0.1,0.3-0.2C5.2,2.5,4.6,2.2,4.2,1.7
				C2.9,2,2.2,2.8,1.9,4c0.4-1,1-1.7,2-2.1C3.6,2.2,3.3,2.3,3.1,2.5C3.5,3,3.9,3.4,4.4,3.7c0.2-0.2,0.4-0.4,0.7-0.5
				c0.3,0.9,0.4,1.9,0.7,2.8C5.1,5.6,4.5,4.9,3.8,4.4C3.9,4.1,4.1,4,4.3,3.8C3.9,3.4,3.4,3,3,2.6C2.8,3,2.1,3.4,2.2,3.9
				c-0.1,0-0.1-0.2-0.1,0C2,4.3,1.7,4.7,1.8,5.1c0,0.2,0.4,0.5,0.7,0.7C2.7,6,3,6.2,3.2,6.3c0-0.1,0-0.2,0-0.3
				C4,6.1,4.9,6.2,5.7,6.3c3.2,2.9,11.5,10.7,14.7,13.5L20.5,19.6L20.5,19.6z M3.9,1.9C4.2,1.8,4,2.1,3.9,1.9L3.9,1.9z M3.2,6
				c0-0.4,0.2-0.6,0.2-1C3.1,4.6,2.7,4.3,2.3,3.9c0.2,0.1,0.8,0.8,1.1,1c0.1-0.2,0.2-0.4,0.3-0.5C4.4,4.9,5,5.6,5.6,6.2
				C4.8,6.2,4.1,6,3.2,6z"/>
			<g>
				<path class="st3" d="M31.8,18.5L31.8,18.5C31.8,18.5,31.8,18.5,31.8,18.5z"/>
				<path class="st3" d="M30.7,17.7c0,0,0.1-0.1,0.1-0.1C30.7,17.6,30.7,17.6,30.7,17.7z"/>
				<path class="st3" d="M37.8,31.6c0.1,0.1,0.3,0.1,0.4,0.1C38.2,31.6,38,31.6,37.8,31.6z"/>
				<path class="st3" d="M24.3,23.3l0.3,0.3C24.7,23.7,24.4,23.3,24.3,23.3z"/>
				<path class="st3" d="M39,32.6c-0.2-0.3-0.4-0.6-0.7-0.8c0.1,0,0.5,0.1,0.6-0.1c-0.1-0.2-0.3-0.2-0.5-0.3
					c-0.4-0.2-0.8-0.6-1.4-0.5c-0.2-0.3-0.4-0.7-0.6-1c-0.2-0.3-0.4-0.7-0.6-1c-0.3-0.4-0.7-0.5-1-0.8c0,0.4,0.5,0.6,0.6,1.1
					c-0.3,0.1-0.7-0.3-0.9-0.5c0-0.2,0.2-0.1,0.1-0.2c-0.1-0.7-0.3-1.3-0.5-2c-0.5-0.3-0.8-0.8-1-1.4c0.4-0.1,0.6,0.8,0.8,0.9
					c-0.1-0.3-0.3-0.6-0.5-0.9c0.2-0.7,0.2-1.9-0.3-2.3c-0.1,0,0,0.3-0.2,0.3c-0.4-0.1-0.7-0.4-1-0.6c-0.1,0.1,0.1,0.2,0.1,0.4
					c-0.6,0.4-1.7,0.5-2.5,0.3c-0.1,0.1,0.1,0.2,0.1,0.3c-0.5-0.1-0.9-0.3-1-0.7c0-0.3,0.2-0.4,0.2-0.7c-0.2-0.1-0.6-0.1-0.8-0.2
					c-0.2-0.5,0.2-0.9,0.3-1.2c0.1,0,0,0.3,0.1,0.3c0.5,0,1.4-0.3,1.7,0.1c0,0.2-0.2,0.4-0.3,0.5c0.5-0.1,1.2,0.1,1.6,0.4
					c0.5-0.2,1,0.2,1.3,0.3c-0.1-0.3-0.2-0.6-0.3-0.8c0-0.1,0-0.5-0.1-0.3c0.1-0.5,0.3-0.9,0.5-1.4c0.1-0.1,0.3-0.1,0.3-0.2
					c0-0.3,0.1-0.5,0.1-0.8c-0.1,0-0.1-0.1-0.2,0c0.1-0.2,0.2,0.1,0.3,0.1c0.2-0.5,0.4-1.7-0.3-1.7c0-0.1,0.2,0,0.2-0.1
					c-0.2-0.5-0.6-0.7-1-0.7c-0.8-0.1-1.4,0.5-2,0.6c0,0.1,0.2,0.1,0.4,0.1C30.5,17,30.2,17,30,17.1c0.4,0.2,0.7,0,0.9-0.2
					c-0.2,0.3-0.5,0.8-1.1,0.7c0.2,0.2,0.6,0.3,0.8,0.1c0,0,0-0.1,0.1-0.1c0,0,0,0.1-0.1,0.1c-0.1,0.1-0.2,0.3-0.4,0.3
					c-0.1,0-0.2,0-0.1,0c0.2,0,0.3-0.2,0.5-0.1c0.1,0.2-0.1,0.4-0.3,0.3c0.1,0.2,0.4,0,0.5-0.1c0.1,0,0.4,0.2,0.4,0.1
					c0-0.3-0.3-0.2-0.5-0.2c0.4-0.4,0.9-0.7,1.7-0.7c-0.1,0.4-0.3,0.6-0.6,0.7c0,0.1,0.2,0.1,0.3,0.2c-0.1,0.1-0.4-0.2-0.6-0.1
					c-0.3,0.2-0.1,1-0.6,1.1c0,0.2,0.3,0,0.3,0.1c0,0.2-0.2,0.1-0.4,0.1c0,0.2,0.1,0.2,0.3,0.2c-0.3,0.1-0.1,0.4-0.2,0.5
					c-0.3-0.2-0.2-1-0.4-1.4c-0.1,0.3,0.1,0.7,0.1,0.9c-0.5-0.1-0.7-1.1-1.5-0.8c0.2,0.2,0.5,0.1,0.6,0.4c-0.5,0.1-1.1,0.2-1.6,0.4
					c0.1-0.3,0.4-0.4,0.6-0.6c-0.3-0.1-0.6,0.4-1,0.4c-0.5,0.1-1.1-0.2-1.5,0.1c0.4,0.1,1.1-0.1,1.4,0.2c-0.7,0.2-1.7,0.2-2.4,0.4
					c0-0.3,0.3-0.3,0.3-0.5c-0.3,0-0.6,0-0.7-0.1c0-0.1,0.1-0.1,0.2,0c-0.1-0.2-0.5-0.1-0.8-0.1c-0.5,0.1-1,0.3-1.5,0.1
					c0,0.1,0.1,0.1,0.1,0.1c-0.3-0.2-0.6-0.3-1-0.2c0,0,0,0,0,0h-0.4c0,0,0,0,0,0c0.3,0,0.5,0.1,0.7,0.2c-0.3,0.1-0.4,0.3-0.5,0.5
					c-0.3-0.2-0.7-0.1-0.9,0.1c-0.1-0.2,0.4-0.2,0.3-0.4c-0.2,0.1-0.4,0.1-0.5,0.2c0-0.2,0.3-0.2,0.3-0.4c-0.1,0-0.2,0.1-0.3,0.1
					c-0.1-0.1,0.3-0.2,0.1-0.3c-0.1,0-0.1,0-0.1,0c0.1-0.2-0.1,0-0.1,0c0,0,0,0,0,0v0.2c0,0,0,0,0,0c-0.1,0.3-0.2,0.7-0.1,1
					c0,0,0.1,0.1,0.1,0.1c0,0,0,0,0,0h0c0,0,0,0,0,0c0.1-0.2,0.3-0.2,0.5-0.3c-0.1,0.2-0.4,0.2-0.4,0.5c0.3,0.1,0.3-0.3,0.6-0.2
					c0.3,0,1.1,0.7,1.4,1c0.5,0.4,0.9,0.9,1.2,1.2c-0.1,0.1-0.2,0.2-0.3,0.3c0.9,0.4,1.3,1.2,1.9,1.9c-0.8-0.6-1.3-2-2.7-1.7
					c0,0.2,0.3,0.2,0.3,0.4c-2.3-0.8-4.5,0.4-6.5,0.8c0.2,0.2,0.6,0.2,0.8,0.5c-0.4-0.1-0.9-0.5-1.3-0.4c-0.3,0-0.5,0.3-0.8,0.3
					c-0.3,0.5-0.5,1.1-0.8,1.6c-0.2,0.3-0.4,0.5-0.7,0.8c-0.7,0.9-1.4,2.2-2.4,2.7c0,0.1,0,0.3,0,0.4c0.2,0,0.4,0.2,0.6,0.2
					c0.1,0.3,0.1,0.6,0.3,0.8c-0.3-0.2-0.5-0.9-0.9-1c0-0.2,0-0.4,0-0.4c-0.1,0-0.1,0-0.2,0c-0.1,0,0,0.4-0.2,0.5
					c-0.2-0.2,0.2-0.6,0-0.9c-0.4-0.3-0.8-0.5-1.3-0.6c-0.1,0-0.2,0-0.2,0.1C9.1,29.3,8.9,29,8.5,29c1.6,0.8,2.6,2.4,3.8,3.7
					c0.2-0.3,0.4-0.6,0.5-1c0.1,0,0.1-0.1,0.2,0c0.2-0.5,1-0.7,1.6-1c0.4-0.2,0.9-0.5,1.3-0.6c0.9-0.3,2-0.4,2.6-1.1
					c0.4-0.5,0.5-1.3,1.4-1.2c0-0.2-0.1-0.2,0-0.3c0.1,0.1,0,0.4,0.1,0.5c0.9-0.1,1.9-0.2,2.9-0.1c1.4,0.1,2.6,0.3,3.4-0.5
					c0.1-0.3,0.5-0.5,0.3-0.9c0.2,0.2,0.1,0.4,0.1,0.7c0.9,0,1.6-0.5,2-1.2c-0.9,0.1-1.5-0.2-1.9-0.8c0.5,0.3,1.2,0.9,2,0.5
					c0-0.1,0-0.2,0-0.3c0.5,0.1,1-0.4,1.5-0.4c0.3-0.1,0.6,0,0.9,0c0.3,0,0.6-0.3,1-0.1c0.1-0.1,0.1-0.3,0.1-0.4
					c-0.1,1.1,0.2,1.8,0.6,2.6c0.2,0.4,0.3,0.9,0.6,1.2c0.2,0.9,0.8,1.4,1.4,2c0.2,0.2,0.4,0.4,0.7,0.5c0.4,0.3,0.8,0.5,1,1
					c0.6,0.4,0.9,1.1,2,0.9c0.2-0.1-0.2-0.2-0.2-0.3C38.6,32.5,38.8,32.7,39,32.6z M30.9,17.3c0.3,0,0.5-0.4,0.9-0.3
					C31.4,17.1,31.2,17.4,30.9,17.3z M31.7,16.4c0.1,0,0.3-0.1,0.3,0C31.9,16.4,31.7,16.5,31.7,16.4z M32.2,16.6
					C31.8,16.5,32.2,16.4,32.2,16.6L32.2,16.6z M32.7,17.9c0-0.1,0-0.2,0-0.2C32.7,17.8,32.7,17.9,32.7,17.9c0,0.2,0,0.4,0,0.5
					c0,0.1,0.3,0,0.1,0.1c0,0.1,0-0.1-0.2,0C32.6,18.3,32.6,18.1,32.7,17.9z M32.6,19.5c0,0.4-0.3,0.8-0.5,0.9
					c0.1-0.2-0.3,0.1-0.3,0C32.3,20.3,32.4,19.8,32.6,19.5z M31.8,18.5C31.8,18.5,31.8,18.5,31.8,18.5L31.8,18.5z M31.7,18.7
					c0.1,0.2,0.3,0.1,0.3,0.4c-0.1,0.1-0.2,0.1-0.3,0C31.7,19,31.5,18.7,31.7,18.7z M31.7,20.4c-0.1,0-0.2,0.1-0.4,0.1
					c-0.1,0.1-0.1,0.2-0.2,0.2c-0.1-0.1-0.1-0.2-0.1-0.4C31.2,20.5,31.7,20.3,31.7,20.4z M16.6,27.5c-1.1,0.6-1.9,1.8-2.9,2.3
					c1.2-0.6,2.7-1.3,3.5-2.2c0.1-0.1,0.3-0.3,0.2-0.1c-0.2,1-1.1,1.1-1.9,1.5c-1.2,0.6-2.2,1.4-3.4,1.8c-0.1-0.1-0.3-0.1-0.4-0.2
					c1.4-0.1,2.2-1.4,3.1-2c0.2-0.1,0.3-0.1,0.5-0.2c0.4-0.3,0.7-0.8,1-1.3c0.1-0.1,0-0.4,0.1-0.4c0.4,0.1,0.9,0.1,1.2,0
					c0-0.1,0.1-0.3,0.1-0.2C17.6,27,17.1,27.2,16.6,27.5z M18.6,26.3c-0.2,0.1-0.4,0-0.6-0.1C18,25.9,18.7,25.9,18.6,26.3z
					 M19.4,26.2c0.1,0.1,0.2,0.2,0.2,0.4c0.1,0,0,0.1,0,0c-0.2-0.5-0.6-0.7-1-0.9c1.3-0.6,3.3-0.9,4.9-0.7
					C21.8,25.1,20.3,25.3,19.4,26.2z M24.6,23.6l-0.3-0.3l-0.9-1c0.2,0.2,0.4,0.3,0.7,0.3c0,0.2-0.1,0.2-0.1,0.2
					c0.1,0.1,0.3,0.2,0.3,0.4C24.4,23.3,24.7,23.7,24.6,23.6z M26,24c-0.4-0.2-1.4-1.2-0.6-1.6c-0.2-0.3-0.8-0.4-1,0
					c-1.1-0.4-2-1-2.8-1.7c0.3,0,0.4-0.3,0.6-0.3c0.4-0.1,0.7,0.3,1.1,0.4c0.3,0.1,0.7,0.3,1,0.3c0.2,0,0.4-0.3,0.7-0.2
					c0,0-0.1,0.1,0,0.1c0.4,0,0.8-0.2,1-0.1c-0.1,0.1-0.3,0-0.3,0.1c0.5-0.1,1.1,0.1,1.6,0c0.2,0,0.4-0.2,0.6-0.1
					c-0.3,0.2-0.5,0.6-0.6,0.9c-0.1-0.1-0.2,0-0.3,0c-0.4,0.4-1.4,0.4-1.5,1C25.2,23.3,25.8,23.5,26,24C26,24,26.1,24.1,26,24z
					 M27.2,23.2c0.1,0.2,0.4,0.1,0.4,0.4c-0.9,0-1.6-0.3-1.9-0.9c0.3-0.2,0.5,0.1,0.7,0.1c0-0.1-0.1-0.2-0.1-0.2
					c0.4-0.1,0.7,0.3,1,0.1c0-0.1-0.2-0.3,0-0.3c0.2,0.2,0.4,0.4,0.6,0.6c-0.1,0-0.2-0.1-0.2,0c0.1,0.1,0.2,0.1,0.3,0.2
					C27.8,23.3,27.4,23.1,27.2,23.2z M29.6,23.7c0.9,0.3,2.3-0.2,2.9,0.4C31.7,23.7,30.4,24.1,29.6,23.7z M37.8,31.6
					c0.2,0,0.4,0,0.4,0.1C38.1,31.7,37.9,31.7,37.8,31.6z"/>
			</g>
		</g>
	</g>
</g>
</svg>
